<svg xmlns="http://www.w3.org/2000/svg" version="1.1" xmlnsXlink="http://www.w3.org/1999/xlink" xmlnsSvgjs="http://svgjs.dev/svgjs" width="2000" height="257" viewBox="0 0 2000 257"><g transform="matrix(1,0,0,1,-1.2121212121212466,-0.13399761582732594)"><svg viewBox="0 0 396 51" data-background-color="#ffffff" preserveAspectRatio="xMidYMid meet" height="257" width="2000" xmlns="http://www.w3.org/2000/svg" xmlnsXlink="http://www.w3.org/1999/xlink"><g id="tight-bounds" transform="matrix(1,0,0,1,0.2400000000000091,0.026590966564953078)"><svg viewBox="0 0 395.52 50.9468180668701" height="50.9468180668701" width="395.52"><g><svg viewBox="0 0 512.5040685376429 66.01550247349822" height="50.9468180668701" width="395.52"><g><rect width="5.923727503540919" height="66.01550247349822" x="95.55320097247656" y="0" fill="#919191" opacity="1" stroke-width="0" stroke="transparent" fill-opacity="1" class="rect-qz-0" data-fill-palette-color="primary" rx="1%" id="qz-0" data-palette-color="#919191"></rect></g><g transform="matrix(1,0,0,1,116.98406853764291,0.1642176678445182)"><svg viewBox="0 0 395.52 65.68706713780918" height="65.68706713780918" width="395.52"><g id="textblocktransform"><svg viewBox="0 0 395.52 65.68706713780918" height="65.68706713780918" width="395.52" id="textblock"><g><svg viewBox="0 0 395.52 65.68706713780918" height="65.68706713780918" width="395.52"><g transform="matrix(1,0,0,1,0,0)"><svg width="395.52" viewBox="0.5 -37 226.38 37.6" height="65.68706713780918" data-palette-color="#919191"><path d="M16 0L11.25 0 11.25-30.8 0.5-30.8 0.5-35 26.75-35 26.75-30.8 16-30.8 16 0ZM36.25 0.6L36.25 0.6Q34 0.6 32-0.35 30-1.3 28.75-3.43 27.5-5.55 27.5-9.1L27.5-9.1 27.5-26 32-26 32-9.7Q32-6.65 33.3-5.03 34.6-3.4 37.1-3.4L37.1-3.4Q39.15-3.4 41.07-4.23 43-5.05 44.5-6.45L44.5-6.45 44.5-26 49-26 49-6.75Q49-4.6 49.92-3.93 50.85-3.25 51.95-3.25L51.95-3.25 51 0.25Q46.35 0.25 45.25-3.45L45.25-3.45Q43.5-1.65 41.2-0.53 38.9 0.6 36.25 0.6ZM62.45 0L57.95 0 57.95-26 62.3-26 62.3-20.35Q62.95-22 64.05-23.43 65.15-24.85 66.8-25.73 68.45-26.6 70.65-26.6L70.65-26.6Q71.4-26.6 72.15-26.53 72.9-26.45 73.4-26.3L73.4-26.3 72.05-21.65Q71.1-22.05 69.8-22.05L69.8-22.05Q67.95-22.05 66.27-21 64.6-19.95 63.52-17.75 62.45-15.55 62.45-12.15L62.45-12.15 62.45 0ZM89.59 0.6L89.59 0.6Q87.34 0.6 85.37-0.23 83.39-1.05 82.09-2.15L82.09-2.15 82.09 0 77.89 0 77.89-37 82.39-37 82.39-23.3Q83.39-24.45 85.32-25.53 87.24-26.6 89.89-26.6L89.89-26.6Q92.89-26.6 95.52-25.03 98.14-23.45 99.74-20.48 101.34-17.5 101.34-13.25L101.34-13.25Q101.34-10.15 100.34-7.6 99.34-5.05 97.67-3.23 95.99-1.4 93.89-0.4 91.79 0.6 89.59 0.6ZM88.39-3.4L88.39-3.4Q90.84-3.4 92.72-4.6 94.59-5.8 95.67-8 96.74-10.2 96.74-13.1L96.74-13.1Q96.74-16.1 95.67-18.25 94.59-20.4 92.82-21.55 91.04-22.7 88.89-22.7L88.89-22.7Q86.74-22.7 85.02-21.63 83.29-20.55 82.39-19.3L82.39-19.3 82.39-5.4Q83.54-4.5 85.09-3.95 86.64-3.4 88.39-3.4ZM118.54 0.6L118.54 0.6Q114.84 0.6 111.89-1.13 108.94-2.85 107.27-5.93 105.59-9 105.59-13L105.59-13Q105.59-17.2 107.29-20.25 108.99-23.3 111.94-24.95 114.89-26.6 118.54-26.6L118.54-26.6Q122.19-26.6 125.12-24.95 128.04-23.3 129.77-20.28 131.49-17.25 131.49-13.1L131.49-13.1Q131.49-8.95 129.79-5.88 128.09-2.8 125.17-1.1 122.24 0.6 118.54 0.6ZM118.54-3.4L118.54-3.4Q122.49-3.4 124.69-6.08 126.89-8.75 126.89-13L126.89-13Q126.89-15.6 125.79-17.78 124.69-19.95 122.82-21.28 120.94-22.6 118.54-22.6L118.54-22.6Q114.59-22.6 112.39-20 110.19-17.4 110.19-13.1L110.19-13.1Q110.19-10.5 111.29-8.28 112.39-6.05 114.27-4.73 116.14-3.4 118.54-3.4ZM142.74 0L137.99 0 137.99-35 142.74-35 142.74-20.05 159.99-20.05 159.99-35 164.74-35 164.74 0 159.99 0 159.99-15.95 142.74-15.95 142.74 0ZM181.74 0.6L181.74 0.6Q179.49 0.6 177.49-0.35 175.49-1.3 174.24-3.43 172.99-5.55 172.99-9.1L172.99-9.1 172.99-26 177.49-26 177.49-9.7Q177.49-6.65 178.79-5.03 180.09-3.4 182.59-3.4L182.59-3.4Q184.64-3.4 186.56-4.23 188.49-5.05 189.99-6.45L189.99-6.45 189.99-26 194.49-26 194.49-6.75Q194.49-4.6 195.41-3.93 196.34-3.25 197.44-3.25L197.44-3.25 196.49 0.25Q191.84 0.25 190.74-3.45L190.74-3.45Q188.99-1.65 186.69-0.53 184.39 0.6 181.74 0.6ZM215.13 0.6L215.13 0.6Q212.88 0.6 210.91-0.23 208.93-1.05 207.63-2.15L207.63-2.15 207.63 0 203.43 0 203.43-37 207.93-37 207.93-23.3Q208.93-24.45 210.86-25.53 212.78-26.6 215.43-26.6L215.43-26.6Q218.43-26.6 221.06-25.03 223.68-23.45 225.28-20.48 226.88-17.5 226.88-13.25L226.88-13.25Q226.88-10.15 225.88-7.6 224.88-5.05 223.21-3.23 221.53-1.4 219.43-0.4 217.33 0.6 215.13 0.6ZM213.93-3.4L213.93-3.4Q216.38-3.4 218.26-4.6 220.13-5.8 221.21-8 222.28-10.2 222.28-13.1L222.28-13.1Q222.28-16.1 221.21-18.25 220.13-20.4 218.36-21.55 216.58-22.7 214.43-22.7L214.43-22.7Q212.28-22.7 210.56-21.63 208.83-20.55 207.93-19.3L207.93-19.3 207.93-5.4Q209.08-4.5 210.63-3.95 212.18-3.4 213.93-3.4Z" opacity="1" transform="matrix(1,0,0,1,0,0)" fill="#919191" class="wordmark-text-0" data-fill-palette-color="primary" id="text-0"></path></svg></g></svg></g></svg></g></svg></g><g transform="matrix(1,0,0,1,0,0.1642176678445182)"><svg viewBox="0 0 80.04606091085112 65.68706713780918" height="65.68706713780918" width="80.04606091085112"><g><svg xmlns="http://www.w3.org/2000/svg" xmlnsXlink="http://www.w3.org/1999/xlink" version="1.1" x="0" y="0" viewBox="0.5319999999999996 9.406999999999998 98.93301351808694 81.186" enable-background="new 0 0 100 100" xmlSpace="preserve" height="65.68706713780918" width="80.04606091085112" class="icon-icon-0" data-fill-palette-color="accent" id="icon-0"><g fill="#919191" data-fill-palette-color="accent"><path fill="#919191" d="M82.269 56.016H48.895c-1.184 0-2.144 0.96-2.144 2.144v21.496c0 1.184 0.96 2.144 2.144 2.144h33.374c1.184 0 2.144-0.96 2.144-2.144V58.161C84.413 56.976 83.453 56.016 82.269 56.016zM80.125 77.513H51.039V60.305h29.085V77.513z" data-fill-palette-color="accent"></path><path fill="#919191" d="M98.855 30.269l-9.17-9.36v-9.358c0-1.184-0.96-2.144-2.144-2.144H12.459c-1.184 0-2.144 0.96-2.144 2.144v9.358l-9.17 9.36c-0.393 0.401-0.613 0.939-0.613 1.501v8.16c0 4.196 2.238 7.879 5.582 9.918v38.601c0 1.184 0.96 2.144 2.144 2.144h10.815c0.011 0 0.02-0.003 0.031-0.003 0.011 0 0.02 0.003 0.031 0.003 1.184 0 2.144-0.96 2.144-2.144V60.305h15.371v28.144c0 1.184 0.96 2.144 2.144 2.144h52.508c1.184 0 2.144-0.96 2.144-2.144V50.1c3.585-1.978 6.019-5.795 6.019-10.17v-8.16C99.467 31.208 99.247 30.67 98.855 30.269zM14.604 13.696h70.792v5.945H14.604V13.696zM89.16 86.304H40.94V58.161c0-1.184-0.96-2.144-2.144-2.144h-19.66c-1.184 0-2.144 0.96-2.144 2.144v28.144h-6.588V51.408c0.567 0.086 1.147 0.13 1.738 0.13 3.901 0 7.358-1.934 9.465-4.894 2.106 2.96 5.564 4.894 9.465 4.894s7.358-1.934 9.465-4.894c2.106 2.96 5.564 4.894 9.465 4.894s7.359-1.934 9.465-4.894c2.106 2.959 5.564 4.894 9.465 4.894s7.358-1.934 9.465-4.894c2.106 2.96 5.564 4.894 9.465 4.894 0.44 0 0.874-0.027 1.302-0.075V86.304zM95.178 39.929c0 4.036-3.284 7.32-7.32 7.32s-7.32-3.284-7.32-7.32c0-1.184-0.96-2.144-2.144-2.144-1.184 0-2.144 0.96-2.144 2.144 0 4.036-3.284 7.32-7.32 7.32s-7.32-3.284-7.32-7.32c0-1.184-0.96-2.144-2.144-2.144-1.184 0-2.144 0.96-2.144 2.144 0 4.036-3.284 7.32-7.321 7.32s-7.32-3.284-7.32-7.32c0-1.184-0.96-2.144-2.144-2.144-1.184 0-2.144 0.96-2.144 2.144 0 4.036-3.284 7.32-7.32 7.32s-7.32-3.284-7.32-7.32c0-1.184-0.96-2.144-2.144-2.144s-2.144 0.96-2.144 2.144c0 4.036-3.284 7.32-7.32 7.32s-7.32-3.284-7.32-7.32v-7.285l8.539-8.716H86.64l8.539 8.716V39.929z" data-fill-palette-color="accent"></path></g></svg></g></svg></g></svg></g><defs></defs></svg><rect width="395.52" height="50.9468180668701" fill="none" stroke="none" visibility="hidden"></rect></g></svg></g></svg>